<?xml version="1.0" encoding="UTF-8"?>
<svg xmlns="http://www.w3.org/2000/svg" viewBox="0 0 1200 630" width="1200" height="630">
  <defs>
    <linearGradient id="g80967" x1="94.14737964294633%" y1="26.526421860705447%" x2="5.8526203570536595%" y2="73.47357813929455%">
      <stop offset="0%" stop-color="#7C3AED"/>
      <stop offset="100%" stop-color="#6D28D9"/>
    </linearGradient>
  </defs>
  <rect width="1200" height="630" fill="url(#g80967)"/>
  <polygon points="373.2031358825043,244.52098155394197 443.2031358825043,204.52098155394197 513.2031358825043,244.52098155394197 443.2031358825043,284.52098155394197" fill="rgba(255,255,255,0.08)" stroke="rgba(255,255,255,0.15)" stroke-width="2"/><line x1="503.2031358825043" y1="249.52098155394197" x2="503.2031358825043" y2="304.52098155394197" stroke="rgba(255,255,255,0.12)" stroke-width="2"/><path d="M 897.8712578304112 407.41777821909636 C 867.8712578304112 397.41777821909636 817.8712578304112 402.41777821909636 807.8712578304112 337.41777821909636 L 897.8712578304112 347.41777821909636 L 987.8712578304112 337.41777821909636 C 977.8712578304112 402.41777821909636 927.8712578304112 397.41777821909636 897.8712578304112 407.41777821909636 Z" fill="rgba(255,255,255,0.06)" stroke="rgba(255,255,255,0.12)" stroke-width="1.5"/><line x1="897.8712578304112" y1="407.41777821909636" x2="897.8712578304112" y2="347.41777821909636" stroke="rgba(255,255,255,0.12)" stroke-width="1.5"/><rect x="168.08955480810255" y="398.96953597664833" width="8" height="100" rx="1" fill="rgba(255,255,255,0.1)" transform="rotate(46.34862618520856 168.08955480810255 398.96953597664833)"/><circle cx="959.0239546378143" cy="164.88956291228533" r="30" fill="none" stroke="rgba(255,255,255,0.12)" stroke-width="2"/><line x1="949.0239546378143" y1="194.88956291228533" x2="969.0239546378143" y2="194.88956291228533" stroke="rgba(255,255,255,0.1)" stroke-width="2"/><line x1="951.0239546378143" y1="201.88956291228533" x2="967.0239546378143" y2="201.88956291228533" stroke="rgba(255,255,255,0.1)" stroke-width="2"/><circle cx="1063.8219475047663" cy="369.4402237609029" r="4.218827314674854" fill="rgba(255,255,255,0.0980631722137332)"/><circle cx="972.4116479279473" cy="362.1547297947109" r="4.2087266920134425" fill="rgba(255,255,255,0.06557867309078574)"/><circle cx="769.0166450105608" cy="71.57636495539919" r="2.3381392881274223" fill="rgba(255,255,255,0.08104452259838582)"/><circle cx="106.90934464801103" cy="65.57117020944133" r="5.734978839755058" fill="rgba(255,255,255,0.06769229961559177)"/><circle cx="552.065698732622" cy="281.13537992350757" r="3.2609284576028585" fill="rgba(255,255,255,0.10942586695775389)"/><circle cx="957.932513509877" cy="213.11228578910232" r="4.178814115934074" fill="rgba(255,255,255,0.04416819896548987)"/><circle cx="74.13423883263022" cy="168.8557698437944" r="2.957679510116577" fill="rgba(255,255,255,0.053508294299244884)"/><circle cx="492.56568350829184" cy="84.36944935237989" r="2.08841541595757" fill="rgba(255,255,255,0.10400919632986189)"/><circle cx="972.2645828267559" cy="516.1850026622415" r="3.564648326486349" fill="rgba(255,255,255,0.11626839123666285)"/><circle cx="936.5163449198008" cy="462.6085744192824" r="2.937190075404942" fill="rgba(255,255,255,0.07455624481663109)"/><circle cx="880.1582194631919" cy="493.2187930075452" r="3.37948218267411" fill="rgba(255,255,255,0.09555980725213886)"/><circle cx="1051.6316001303494" cy="202.78140776092187" r="3.210702134296298" fill="rgba(255,255,255,0.11337254501879215)"/><circle cx="581.3018143177032" cy="417.7108947606757" r="5.188224286772311" fill="rgba(255,255,255,0.11134731180965901)"/><circle cx="884.6519140060991" cy="366.0298805241473" r="3.5220129741355777" fill="rgba(255,255,255,0.07802153475582599)"/><circle cx="872.5491598248482" cy="398.0012332648039" r="4.092517578043044" fill="rgba(255,255,255,0.04520221805199981)"/>
  <circle cx="779.7497861087322" cy="361.5980993164703" r="1.0623828512616456" fill="rgba(255,255,255,0.031150059769861398)"/><circle cx="1156.1442735604942" cy="613.910545699764" r="2.171068869996816" fill="rgba(255,255,255,0.06277134858071803)"/><circle cx="562.1747595258057" cy="520.536869361531" r="1.0635508932173252" fill="rgba(255,255,255,0.07140666553284973)"/><circle cx="948.7657779827714" cy="551.8113225395791" r="2.7814594050869346" fill="rgba(255,255,255,0.07051946998806671)"/><circle cx="261.5682391449809" cy="190.46090077143162" r="2.637946791946888" fill="rgba(255,255,255,0.06108398143667727)"/><circle cx="795.4466102644801" cy="514.6554994024336" r="1.5655636503361166" fill="rgba(255,255,255,0.06214486029464752)"/><circle cx="115.95814414322376" cy="405.18042932963" r="2.8293393752537668" fill="rgba(255,255,255,0.038556705305818464)"/><circle cx="683.4564825519919" cy="223.3688875939697" r="2.708789521828294" fill="rgba(255,255,255,0.059898151336237784)"/><circle cx="593.0396315641701" cy="444.76044902577996" r="1.8313374114222825" fill="rgba(255,255,255,0.03688496605725959)"/><circle cx="999.0353146567941" cy="495.1999774365686" r="2.7708252174779773" fill="rgba(255,255,255,0.03787540526362136)"/><circle cx="307.8868112526834" cy="70.93150317203254" r="2.0536941178143024" fill="rgba(255,255,255,0.07757902038982138)"/><circle cx="117.84653356298804" cy="320.622091521509" r="2.0410306192934513" fill="rgba(255,255,255,0.04368297976441681)"/><circle cx="316.73169918358326" cy="171.6676294337958" r="2.3487919750623405" fill="rgba(255,255,255,0.0680800630315207)"/><circle cx="240.69830048829317" cy="295.6426719459705" r="1.177073440514505" fill="rgba(255,255,255,0.06492021185811608)"/><circle cx="21.678021177649498" cy="133.39351595146582" r="2.7531409980729222" fill="rgba(255,255,255,0.05300638724118471)"/><circle cx="1187.7611937001348" cy="178.10409903991967" r="2.4945712592452765" fill="rgba(255,255,255,0.04490652092033997)"/><circle cx="527.0975567400455" cy="398.2420783932321" r="2.559575565159321" fill="rgba(255,255,255,0.0304028333700262)"/><circle cx="76.51138538494706" cy="369.2933331755921" r="1.9523593396879733" fill="rgba(255,255,255,0.04485988418571651)"/><circle cx="705.8049109764397" cy="55.24134664563462" r="2.7387912264093757" fill="rgba(255,255,255,0.04269670082256198)"/><circle cx="1103.6627230234444" cy="24.94866037974134" r="2.350189359392971" fill="rgba(255,255,255,0.07835989103885369)"/>
  <text x="600" y="335" font-family="system-ui, -apple-system, 'Segoe UI', sans-serif" font-size="50" font-weight="700" fill="rgba(0,0,0,0.15)" text-anchor="middle" letter-spacing="1">Cs Executive Entrance Test</text>
  <text x="600" y="332" font-family="system-ui, -apple-system, 'Segoe UI', sans-serif" font-size="50" font-weight="700" fill="white" text-anchor="middle" letter-spacing="1">Cs Executive Entrance Test</text>
  <g transform="translate(1140, 575)">
    <rect x="0" y="0" width="40" height="40" rx="8" fill="rgba(255,255,255,0.15)"/>
    <text x="20" y="29" font-family="sans-serif" font-weight="bold" font-size="24" fill="rgba(255,255,255,0.6)" text-anchor="middle">K</text>
  </g>
</svg>